<svg width="1000" height="1000" viewBox="0 0 1000 1000" fill="none" xmlns="http://www.w3.org/2000/svg">
<rect width="1000" height="1000" rx="500" fill="#ECF5FF"/>
<rect x="231" y="162" width="538" height="672" fill="white"/>
<path d="M264.179 233.132C255.186 233.12 247.244 229.546 241.334 223.659C235.447 217.738 231.873 209.794 231.861 200.801C231.873 191.806 235.447 183.866 241.322 177.943C247.244 172.068 255.186 168.495 264.179 168.471L769.069 168.481V126.622L264.179 126.612C223.207 126.635 190.013 159.829 190 200.802V798.817C190.013 839.79 223.207 872.984 264.179 873.007H790V233.132H264.179ZM748.139 831.147H264.179C246.332 831.112 231.896 816.675 231.861 798.817V267.494C241.637 272.236 252.569 274.993 264.179 274.993H748.138V831.147H748.139Z" fill="#D9EDFE"/>
<path d="M286.578 523H284.234V505.227H286.578V523ZM296.111 515.078C294.101 514.5 292.636 513.792 291.717 512.954C290.805 512.107 290.35 511.066 290.35 509.829C290.35 508.429 290.907 507.273 292.022 506.362C293.145 505.442 294.602 504.982 296.392 504.982C297.613 504.982 298.699 505.218 299.651 505.69C300.612 506.162 301.352 506.813 301.873 507.644C302.402 508.474 302.667 509.381 302.667 510.366H300.311C300.311 509.292 299.969 508.449 299.285 507.839C298.602 507.22 297.637 506.911 296.392 506.911C295.236 506.911 294.333 507.167 293.682 507.68C293.039 508.185 292.718 508.889 292.718 509.792C292.718 510.516 293.023 511.131 293.633 511.635C294.252 512.132 295.298 512.587 296.771 513.002C298.252 513.417 299.407 513.877 300.237 514.382C301.076 514.878 301.694 515.46 302.093 516.127C302.5 516.795 302.703 517.58 302.703 518.483C302.703 519.924 302.142 521.079 301.019 521.95C299.896 522.813 298.394 523.244 296.514 523.244C295.293 523.244 294.154 523.012 293.096 522.548C292.038 522.076 291.22 521.433 290.643 520.62C290.073 519.806 289.788 518.882 289.788 517.849H292.144C292.144 518.923 292.539 519.773 293.328 520.4C294.126 521.018 295.188 521.328 296.514 521.328C297.751 521.328 298.699 521.075 299.358 520.571C300.018 520.066 300.347 519.379 300.347 518.508C300.347 517.637 300.042 516.966 299.432 516.494C298.821 516.014 297.715 515.542 296.111 515.078ZM305.718 523V505.227H311.529C313.458 505.227 314.906 505.625 315.875 506.423C316.851 507.22 317.339 508.4 317.339 509.963C317.339 510.793 317.103 511.529 316.631 512.172C316.159 512.807 315.516 513.299 314.703 513.649C315.663 513.918 316.42 514.431 316.973 515.188C317.535 515.936 317.815 516.831 317.815 517.873C317.815 519.468 317.299 520.721 316.265 521.633C315.232 522.544 313.771 523 311.883 523H305.718ZM308.062 514.687V521.083H311.932C313.022 521.083 313.881 520.803 314.507 520.241C315.142 519.672 315.459 518.89 315.459 517.897C315.459 515.757 314.296 514.687 311.968 514.687H308.062ZM308.062 512.807H311.602C312.627 512.807 313.445 512.551 314.056 512.038C314.674 511.525 314.983 510.83 314.983 509.951C314.983 508.974 314.699 508.266 314.129 507.827C313.559 507.379 312.693 507.155 311.529 507.155H308.062V512.807ZM334.954 523H332.598L323.65 509.304V523H321.294V505.227H323.65L332.623 518.984V505.227H334.954V523ZM345.953 523H343.682V507.949L339.129 509.621V507.57L345.599 505.141H345.953V523ZM364.214 523H352.569V521.376L358.721 514.541C359.633 513.507 360.259 512.669 360.601 512.026C360.951 511.375 361.126 510.703 361.126 510.012C361.126 509.084 360.845 508.323 360.284 507.729C359.722 507.135 358.973 506.838 358.038 506.838C356.915 506.838 356.04 507.159 355.413 507.802C354.795 508.437 354.485 509.324 354.485 510.463H352.227C352.227 508.828 352.752 507.505 353.802 506.496C354.86 505.487 356.272 504.982 358.038 504.982C359.69 504.982 360.996 505.418 361.956 506.289C362.916 507.151 363.396 508.303 363.396 509.743C363.396 511.493 362.282 513.576 360.052 515.993L355.291 521.157H364.214V523ZM369.891 513.015H371.587C372.653 512.998 373.492 512.718 374.102 512.172C374.712 511.627 375.018 510.891 375.018 509.963C375.018 507.88 373.98 506.838 371.905 506.838C370.928 506.838 370.147 507.119 369.561 507.68C368.983 508.234 368.694 508.97 368.694 509.89H366.436C366.436 508.482 366.949 507.314 367.974 506.386C369.008 505.45 370.318 504.982 371.905 504.982C373.581 504.982 374.896 505.426 375.848 506.313C376.8 507.2 377.276 508.433 377.276 510.012C377.276 510.785 377.024 511.534 376.519 512.258C376.023 512.982 375.343 513.523 374.48 513.881C375.457 514.191 376.21 514.703 376.739 515.419C377.276 516.136 377.544 517.01 377.544 518.044C377.544 519.639 377.024 520.904 375.982 521.84C374.94 522.776 373.585 523.244 371.917 523.244C370.249 523.244 368.89 522.792 367.84 521.889C366.798 520.986 366.277 519.794 366.277 518.312H368.548C368.548 519.248 368.853 519.997 369.463 520.559C370.074 521.12 370.892 521.401 371.917 521.401C373.007 521.401 373.842 521.116 374.419 520.546C374.997 519.977 375.286 519.159 375.286 518.093C375.286 517.059 374.969 516.266 374.334 515.712C373.699 515.159 372.784 514.874 371.587 514.858H369.891V513.015ZM385.577 516.372H379.62V514.528H385.577V516.372ZM397.088 517.031H399.554V518.874H397.088V523H394.817V518.874H386.724V517.543L394.683 505.227H397.088V517.031ZM389.288 517.031H394.817V508.315L394.549 508.803L389.288 517.031ZM406.524 516.372H400.567V514.528H406.524V516.372ZM409.539 514.089L410.442 505.227H419.549V507.314H412.359L411.822 512.16C412.693 511.647 413.681 511.391 414.788 511.391C416.408 511.391 417.693 511.928 418.646 513.002C419.598 514.069 420.074 515.513 420.074 517.336C420.074 519.167 419.577 520.611 418.584 521.669C417.6 522.719 416.22 523.244 414.446 523.244C412.876 523.244 411.594 522.809 410.601 521.938C409.608 521.067 409.043 519.863 408.904 518.325H411.041C411.179 519.342 411.541 520.111 412.127 520.632C412.713 521.145 413.486 521.401 414.446 521.401C415.496 521.401 416.318 521.043 416.912 520.327C417.514 519.611 417.815 518.622 417.815 517.36C417.815 516.172 417.49 515.22 416.839 514.504C416.196 513.78 415.337 513.417 414.263 513.417C413.278 513.417 412.505 513.633 411.944 514.064L411.346 514.553L409.539 514.089ZM431.402 505.214V507.131H430.987C429.229 507.163 427.829 507.684 426.788 508.693C425.746 509.702 425.144 511.123 424.981 512.954C425.917 511.879 427.194 511.342 428.814 511.342C430.36 511.342 431.593 511.888 432.513 512.978C433.44 514.069 433.904 515.476 433.904 517.202C433.904 519.033 433.404 520.498 432.403 521.596C431.41 522.695 430.075 523.244 428.399 523.244C426.698 523.244 425.319 522.593 424.261 521.291C423.203 519.981 422.674 518.296 422.674 516.237V515.371C422.674 512.099 423.37 509.601 424.761 507.875C426.161 506.142 428.24 505.255 430.999 505.214H431.402ZM428.436 513.222C427.662 513.222 426.95 513.454 426.299 513.918C425.648 514.382 425.197 514.964 424.944 515.664V516.494C424.944 517.958 425.274 519.139 425.933 520.034C426.592 520.929 427.414 521.376 428.399 521.376C429.416 521.376 430.214 521.002 430.792 520.253C431.377 519.505 431.67 518.524 431.67 517.312C431.67 516.091 431.373 515.106 430.779 514.357C430.193 513.601 429.412 513.222 428.436 513.222ZM441.509 516.372H435.552V514.528H441.509V516.372ZM454.961 506.496L447.601 523H445.232L452.569 507.082H442.95V505.227H454.961V506.496ZM468.304 509.865C468.304 510.752 468.068 511.542 467.596 512.233C467.132 512.925 466.501 513.466 465.704 513.857C466.631 514.256 467.364 514.838 467.901 515.603C468.446 516.368 468.719 517.234 468.719 518.203C468.719 519.741 468.198 520.965 467.156 521.877C466.123 522.788 464.76 523.244 463.067 523.244C461.358 523.244 459.987 522.788 458.953 521.877C457.928 520.957 457.415 519.733 457.415 518.203C457.415 517.242 457.675 516.376 458.196 515.603C458.725 514.829 459.454 514.243 460.381 513.845C459.592 513.454 458.969 512.913 458.514 512.221C458.058 511.529 457.83 510.744 457.83 509.865C457.83 508.368 458.31 507.18 459.271 506.301C460.231 505.422 461.496 504.982 463.067 504.982C464.629 504.982 465.891 505.422 466.851 506.301C467.819 507.18 468.304 508.368 468.304 509.865ZM466.46 518.154C466.46 517.161 466.143 516.351 465.508 515.725C464.882 515.098 464.06 514.785 463.042 514.785C462.025 514.785 461.207 515.094 460.589 515.712C459.979 516.331 459.673 517.145 459.673 518.154C459.673 519.163 459.97 519.956 460.564 520.534C461.167 521.112 462.001 521.401 463.067 521.401C464.125 521.401 464.955 521.112 465.557 520.534C466.159 519.948 466.46 519.155 466.46 518.154ZM463.067 506.838C462.18 506.838 461.46 507.115 460.906 507.668C460.361 508.213 460.088 508.958 460.088 509.902C460.088 510.805 460.357 511.538 460.894 512.099C461.439 512.653 462.164 512.929 463.067 512.929C463.97 512.929 464.69 512.653 465.228 512.099C465.773 511.538 466.045 510.805 466.045 509.902C466.045 508.999 465.765 508.262 465.203 507.692C464.642 507.123 463.93 506.838 463.067 506.838ZM480.218 515.188C479.746 515.749 479.18 516.201 478.521 516.542C477.87 516.884 477.154 517.055 476.373 517.055C475.347 517.055 474.452 516.803 473.687 516.298C472.93 515.794 472.344 515.086 471.929 514.174C471.514 513.255 471.307 512.242 471.307 511.135C471.307 509.947 471.53 508.876 471.978 507.924C472.434 506.972 473.077 506.244 473.907 505.739C474.737 505.235 475.705 504.982 476.812 504.982C478.57 504.982 479.953 505.642 480.962 506.96C481.98 508.27 482.488 510.061 482.488 512.331V512.99C482.488 516.449 481.805 518.976 480.438 520.571C479.07 522.158 477.007 522.972 474.249 523.012H473.809V521.108H474.285C476.149 521.075 477.581 520.591 478.582 519.655C479.583 518.711 480.128 517.222 480.218 515.188ZM476.739 515.188C477.496 515.188 478.191 514.956 478.826 514.492C479.469 514.028 479.937 513.454 480.23 512.771V511.867C480.23 510.386 479.909 509.182 479.266 508.254C478.623 507.326 477.809 506.862 476.824 506.862C475.831 506.862 475.034 507.245 474.432 508.01C473.829 508.767 473.528 509.768 473.528 511.013C473.528 512.225 473.817 513.226 474.395 514.016C474.981 514.797 475.762 515.188 476.739 515.188ZM493.023 523H490.752V507.949L486.199 509.621V507.57L492.669 505.141H493.023V523ZM511.285 523H499.639V521.376L505.792 514.541C506.703 513.507 507.33 512.669 507.671 512.026C508.021 511.375 508.196 510.703 508.196 510.012C508.196 509.084 507.916 508.323 507.354 507.729C506.792 507.135 506.044 506.838 505.108 506.838C503.985 506.838 503.11 507.159 502.483 507.802C501.865 508.437 501.556 509.324 501.556 510.463H499.297C499.297 508.828 499.822 507.505 500.872 506.496C501.93 505.487 503.342 504.982 505.108 504.982C506.76 504.982 508.066 505.418 509.026 506.289C509.987 507.151 510.467 508.303 510.467 509.743C510.467 511.493 509.352 513.576 507.122 515.993L502.361 521.157H511.285V523ZM516.961 513.015H518.658C519.724 512.998 520.562 512.718 521.172 512.172C521.783 511.627 522.088 510.891 522.088 509.963C522.088 507.88 521.05 506.838 518.975 506.838C517.999 506.838 517.217 507.119 516.631 507.68C516.054 508.234 515.765 508.97 515.765 509.89H513.506C513.506 508.482 514.019 507.314 515.044 506.386C516.078 505.45 517.388 504.982 518.975 504.982C520.652 504.982 521.966 505.426 522.918 506.313C523.87 507.2 524.346 508.433 524.346 510.012C524.346 510.785 524.094 511.534 523.589 512.258C523.093 512.982 522.413 513.523 521.551 513.881C522.527 514.191 523.28 514.703 523.809 515.419C524.346 516.136 524.615 517.01 524.615 518.044C524.615 519.639 524.094 520.904 523.052 521.84C522.011 522.776 520.656 523.244 518.987 523.244C517.319 523.244 515.96 522.792 514.91 521.889C513.868 520.986 513.348 519.794 513.348 518.312H515.618C515.618 519.248 515.923 519.997 516.534 520.559C517.144 521.12 517.962 521.401 518.987 521.401C520.078 521.401 520.912 521.116 521.49 520.546C522.068 519.977 522.356 519.159 522.356 518.093C522.356 517.059 522.039 516.266 521.404 515.712C520.77 515.159 519.854 514.874 518.658 514.858H516.961V513.015ZM532.647 516.372H526.69V514.528H532.647V516.372ZM544.158 517.031H546.624V518.874H544.158V523H541.888V518.874H533.794V517.543L541.753 505.227H544.158V517.031ZM536.358 517.031H541.888V508.315L541.619 508.803L536.358 517.031Z" fill="#5B97EE"/>
<path d="M289.399 314.5H282V346H289.399V314.5Z" fill="#5B97EE"/>
<path d="M296.798 314.5H293.099V346H296.798V314.5Z" fill="#5B97EE"/>
<path d="M300.498 314.5V346H304.198H307.897V314.5H304.198H300.498Z" fill="#5B97EE"/>
<path d="M311.597 314.5V346H315.296H318.996V314.5H315.296H311.597Z" fill="#5B97EE"/>
<path d="M326.395 314.5H322.696V346H326.395V314.5Z" fill="#5B97EE"/>
<path d="M333.794 314.5H330.095V346H333.794H337.494H341.194V314.5H337.494H333.794Z" fill="#5B97EE"/>
<path d="M344.893 314.5V346H348.593H352.395V314.5H348.593H344.893Z" fill="#5B97EE"/>
<path d="M360 314.5H356.198V346H360V314.5Z" fill="#5B97EE"/>
<path d="M373.399 314H366V345.5H373.399V314Z" fill="#5B97EE"/>
<path d="M380.798 314H377.099V345.5H380.798V314Z" fill="#5B97EE"/>
<path d="M384.498 314V345.5H388.198H391.897V314H388.198H384.498Z" fill="#5B97EE"/>
<path d="M395.597 314V345.5H399.296H402.996V314H399.296H395.597Z" fill="#5B97EE"/>
<path d="M410.395 314H406.696V345.5H410.395V314Z" fill="#5B97EE"/>
<path d="M417.794 314H414.095V345.5H417.794H421.494H425.194V314H421.494H417.794Z" fill="#5B97EE"/>
<path d="M428.893 314V345.5H432.593H436.395V314H432.593H428.893Z" fill="#5B97EE"/>
<path d="M444 314H440.198V345.5H444V314Z" fill="#5B97EE"/>
<path d="M290.187 376H288.098V362.153L283.909 363.691V361.805L289.861 359.57H290.187V376ZM306.988 376H296.274V374.506L301.934 368.217C302.773 367.266 303.349 366.495 303.664 365.904C303.986 365.305 304.146 364.687 304.146 364.051C304.146 363.197 303.888 362.497 303.372 361.951C302.855 361.404 302.166 361.131 301.305 361.131C300.272 361.131 299.467 361.427 298.891 362.018C298.322 362.602 298.037 363.418 298.037 364.466H295.959C295.959 362.961 296.442 361.745 297.408 360.816C298.382 359.888 299.681 359.424 301.305 359.424C302.825 359.424 304.027 359.824 304.91 360.625C305.794 361.419 306.235 362.479 306.235 363.804C306.235 365.413 305.21 367.33 303.158 369.554L298.778 374.304H306.988V376ZM312.21 366.813H313.771C314.752 366.799 315.523 366.54 316.084 366.039C316.646 365.537 316.927 364.859 316.927 364.006C316.927 362.089 315.972 361.131 314.063 361.131C313.165 361.131 312.446 361.389 311.907 361.906C311.375 362.415 311.109 363.092 311.109 363.938H309.032C309.032 362.643 309.503 361.569 310.447 360.715C311.398 359.854 312.603 359.424 314.063 359.424C315.605 359.424 316.814 359.832 317.69 360.648C318.566 361.464 319.004 362.598 319.004 364.051C319.004 364.762 318.772 365.451 318.308 366.117C317.851 366.784 317.226 367.281 316.433 367.611C317.331 367.895 318.024 368.367 318.51 369.026C319.004 369.685 319.251 370.49 319.251 371.44C319.251 372.908 318.772 374.072 317.814 374.933C316.856 375.794 315.609 376.225 314.074 376.225C312.539 376.225 311.289 375.809 310.323 374.978C309.365 374.147 308.886 373.05 308.886 371.688H310.975C310.975 372.549 311.255 373.237 311.817 373.754C312.378 374.271 313.131 374.529 314.074 374.529C315.077 374.529 315.845 374.267 316.376 373.743C316.908 373.219 317.174 372.466 317.174 371.485C317.174 370.535 316.882 369.805 316.298 369.295C315.714 368.786 314.872 368.524 313.771 368.509H312.21V366.813ZM330.875 370.508H333.144V372.204H330.875V376H328.786V372.204H321.34V370.98L328.663 359.648H330.875V370.508ZM323.699 370.508H328.786V362.49L328.539 362.939L323.699 370.508ZM335.974 367.802L336.805 359.648H345.183V361.569H338.568L338.074 366.027C338.875 365.556 339.785 365.32 340.803 365.32C342.293 365.32 343.476 365.814 344.352 366.802C345.228 367.783 345.666 369.112 345.666 370.789C345.666 372.474 345.209 373.803 344.295 374.776C343.389 375.742 342.12 376.225 340.488 376.225C339.043 376.225 337.864 375.824 336.951 375.023C336.037 374.222 335.517 373.114 335.39 371.699H337.355C337.482 372.635 337.815 373.342 338.354 373.821C338.894 374.293 339.605 374.529 340.488 374.529C341.454 374.529 342.21 374.199 342.757 373.541C343.311 372.882 343.588 371.972 343.588 370.812C343.588 369.718 343.288 368.842 342.689 368.184C342.098 367.517 341.308 367.184 340.32 367.184C339.414 367.184 338.703 367.382 338.186 367.779L337.636 368.229L335.974 367.802ZM356.087 359.637V361.4H355.706C354.088 361.43 352.801 361.91 351.842 362.838C350.884 363.766 350.33 365.073 350.18 366.757C351.041 365.769 352.217 365.275 353.707 365.275C355.129 365.275 356.263 365.777 357.109 366.78C357.963 367.783 358.39 369.078 358.39 370.666C358.39 372.35 357.929 373.698 357.008 374.708C356.095 375.719 354.867 376.225 353.325 376.225C351.76 376.225 350.491 375.626 349.518 374.428C348.544 373.222 348.058 371.673 348.058 369.778V368.981C348.058 365.971 348.698 363.673 349.978 362.085C351.266 360.491 353.179 359.675 355.717 359.637H356.087ZM353.358 367.004C352.647 367.004 351.992 367.218 351.393 367.645C350.794 368.071 350.379 368.607 350.146 369.25V370.014C350.146 371.362 350.45 372.447 351.056 373.271C351.663 374.095 352.419 374.506 353.325 374.506C354.261 374.506 354.994 374.162 355.526 373.473C356.065 372.784 356.334 371.882 356.334 370.767C356.334 369.644 356.061 368.738 355.515 368.049C354.976 367.353 354.257 367.004 353.358 367.004ZM371.406 360.816L364.634 376H362.455L369.205 361.355H360.355V359.648H371.406V360.816ZM383.681 363.916C383.681 364.732 383.464 365.458 383.029 366.095C382.603 366.731 382.022 367.229 381.289 367.588C382.142 367.955 382.816 368.491 383.31 369.194C383.812 369.898 384.062 370.695 384.062 371.586C384.062 373.001 383.583 374.128 382.625 374.967C381.674 375.805 380.42 376.225 378.863 376.225C377.291 376.225 376.029 375.805 375.078 374.967C374.135 374.121 373.663 372.994 373.663 371.586C373.663 370.703 373.903 369.906 374.382 369.194C374.868 368.483 375.539 367.944 376.392 367.577C375.666 367.218 375.093 366.72 374.674 366.083C374.255 365.447 374.045 364.725 374.045 363.916C374.045 362.538 374.487 361.445 375.37 360.637C376.254 359.828 377.418 359.424 378.863 359.424C380.3 359.424 381.461 359.828 382.344 360.637C383.235 361.445 383.681 362.538 383.681 363.916ZM381.985 371.542C381.985 370.628 381.693 369.883 381.109 369.307C380.532 368.73 379.776 368.442 378.84 368.442C377.904 368.442 377.152 368.726 376.583 369.295C376.021 369.864 375.741 370.613 375.741 371.542C375.741 372.47 376.014 373.2 376.561 373.731C377.115 374.263 377.882 374.529 378.863 374.529C379.836 374.529 380.6 374.263 381.154 373.731C381.708 373.192 381.985 372.462 381.985 371.542ZM378.863 361.131C378.047 361.131 377.384 361.385 376.875 361.895C376.373 362.396 376.123 363.081 376.123 363.95C376.123 364.781 376.37 365.455 376.864 365.971C377.365 366.48 378.032 366.735 378.863 366.735C379.694 366.735 380.356 366.48 380.851 365.971C381.352 365.455 381.603 364.781 381.603 363.95C381.603 363.119 381.345 362.441 380.828 361.917C380.312 361.393 379.656 361.131 378.863 361.131ZM394.642 368.812C394.207 369.329 393.687 369.745 393.081 370.059C392.482 370.374 391.823 370.531 391.104 370.531C390.161 370.531 389.337 370.299 388.633 369.834C387.937 369.37 387.398 368.719 387.016 367.88C386.634 367.034 386.443 366.102 386.443 365.084C386.443 363.991 386.649 363.006 387.061 362.13C387.48 361.254 388.072 360.584 388.835 360.12C389.599 359.656 390.49 359.424 391.508 359.424C393.125 359.424 394.398 360.03 395.327 361.243C396.263 362.449 396.73 364.096 396.73 366.185V366.791C396.73 369.973 396.102 372.298 394.844 373.765C393.586 375.225 391.688 375.974 389.15 376.011H388.746V374.259H389.184C390.898 374.229 392.216 373.784 393.137 372.923C394.058 372.054 394.559 370.684 394.642 368.812ZM391.441 368.812C392.137 368.812 392.777 368.599 393.361 368.172C393.953 367.746 394.383 367.218 394.653 366.589V365.758C394.653 364.395 394.357 363.287 393.766 362.434C393.174 361.58 392.425 361.153 391.52 361.153C390.606 361.153 389.872 361.505 389.318 362.209C388.764 362.905 388.487 363.826 388.487 364.972C388.487 366.087 388.753 367.008 389.285 367.734C389.824 368.453 390.542 368.812 391.441 368.812ZM406.422 376H404.333V362.153L400.145 363.691V361.805L406.097 359.57H406.422V376ZM423.223 376H412.509V374.506L418.169 368.217C419.008 367.266 419.584 366.495 419.899 365.904C420.221 365.305 420.382 364.687 420.382 364.051C420.382 363.197 420.124 362.497 419.607 361.951C419.09 361.404 418.402 361.131 417.541 361.131C416.507 361.131 415.702 361.427 415.126 362.018C414.557 362.602 414.272 363.418 414.272 364.466H412.195C412.195 362.961 412.678 361.745 413.644 360.816C414.617 359.888 415.916 359.424 417.541 359.424C419.06 359.424 420.262 359.824 421.146 360.625C422.029 361.419 422.471 362.479 422.471 363.804C422.471 365.413 421.445 367.33 419.394 369.554L415.014 374.304H423.223V376ZM428.445 366.813H430.006C430.987 366.799 431.758 366.54 432.32 366.039C432.881 365.537 433.162 364.859 433.162 364.006C433.162 362.089 432.208 361.131 430.298 361.131C429.4 361.131 428.681 361.389 428.142 361.906C427.611 362.415 427.345 363.092 427.345 363.938H425.267C425.267 362.643 425.739 361.569 426.682 360.715C427.633 359.854 428.838 359.424 430.298 359.424C431.841 359.424 433.05 359.832 433.926 360.648C434.802 361.464 435.24 362.598 435.24 364.051C435.24 364.762 435.008 365.451 434.543 366.117C434.087 366.784 433.462 367.281 432.668 367.611C433.566 367.895 434.259 368.367 434.746 369.026C435.24 369.685 435.487 370.49 435.487 371.44C435.487 372.908 435.008 374.072 434.049 374.933C433.091 375.794 431.844 376.225 430.31 376.225C428.775 376.225 427.524 375.809 426.559 374.978C425.6 374.147 425.121 373.05 425.121 371.688H427.21C427.21 372.549 427.491 373.237 428.052 373.754C428.614 374.271 429.366 374.529 430.31 374.529C431.313 374.529 432.08 374.267 432.612 373.743C433.143 373.219 433.409 372.466 433.409 371.485C433.409 370.535 433.117 369.805 432.533 369.295C431.949 368.786 431.107 368.524 430.006 368.509H428.445V366.813ZM447.11 370.508H449.379V372.204H447.11V376H445.021V372.204H437.576V370.98L444.898 359.648H447.11V370.508ZM439.934 370.508H445.021V362.49L444.774 362.939L439.934 370.508Z" fill="#5B97EE"/>
<path d="M289.399 402.5H282V434H289.399V402.5Z" fill="#5B97EE"/>
<path d="M296.798 402.5H293.099V434H296.798V402.5Z" fill="#5B97EE"/>
<path d="M300.498 402.5V434H304.198H307.897V402.5H304.198H300.498Z" fill="#5B97EE"/>
<path d="M311.597 402.5V434H315.296H318.996V402.5H315.296H311.597Z" fill="#5B97EE"/>
<path d="M326.395 402.5H322.696V434H326.395V402.5Z" fill="#5B97EE"/>
<path d="M333.794 402.5H330.095V434H333.794H337.494H341.194V402.5H337.494H333.794Z" fill="#5B97EE"/>
<path d="M344.893 402.5V434H348.593H352.395V402.5H348.593H344.893Z" fill="#5B97EE"/>
<path d="M360 402.5H356.198V434H360V402.5Z" fill="#5B97EE"/>
<path d="M373.399 402H366V433.5H373.399V402Z" fill="#5B97EE"/>
<path d="M380.798 402H377.099V433.5H380.798V402Z" fill="#5B97EE"/>
<path d="M384.498 402V433.5H388.198H391.897V402H388.198H384.498Z" fill="#5B97EE"/>
<path d="M395.597 402V433.5H399.296H402.996V402H399.296H395.597Z" fill="#5B97EE"/>
<path d="M410.395 402H406.696V433.5H410.395V402Z" fill="#5B97EE"/>
<path d="M417.794 402H414.095V433.5H417.794H421.494H425.194V402H421.494H417.794Z" fill="#5B97EE"/>
<path d="M428.893 402V433.5H432.593H436.395V402H432.593H428.893Z" fill="#5B97EE"/>
<path d="M444 402H440.198V433.5H444V402Z" fill="#5B97EE"/>
<path d="M290.187 464H288.098V450.153L283.909 451.691V449.805L289.861 447.57H290.187V464ZM306.988 464H296.274V462.506L301.934 456.217C302.773 455.266 303.349 454.495 303.664 453.904C303.986 453.305 304.146 452.687 304.146 452.051C304.146 451.197 303.888 450.497 303.372 449.951C302.855 449.404 302.166 449.131 301.305 449.131C300.272 449.131 299.467 449.427 298.891 450.018C298.322 450.602 298.037 451.418 298.037 452.466H295.959C295.959 450.961 296.442 449.745 297.408 448.816C298.382 447.888 299.681 447.424 301.305 447.424C302.825 447.424 304.027 447.824 304.91 448.625C305.794 449.419 306.235 450.479 306.235 451.804C306.235 453.413 305.21 455.33 303.158 457.554L298.778 462.304H306.988V464ZM312.21 454.813H313.771C314.752 454.799 315.523 454.54 316.084 454.039C316.646 453.537 316.927 452.859 316.927 452.006C316.927 450.089 315.972 449.131 314.063 449.131C313.165 449.131 312.446 449.389 311.907 449.906C311.375 450.415 311.109 451.092 311.109 451.938H309.032C309.032 450.643 309.503 449.569 310.447 448.715C311.398 447.854 312.603 447.424 314.063 447.424C315.605 447.424 316.814 447.832 317.69 448.648C318.566 449.464 319.004 450.598 319.004 452.051C319.004 452.762 318.772 453.451 318.308 454.117C317.851 454.784 317.226 455.281 316.433 455.611C317.331 455.895 318.024 456.367 318.51 457.026C319.004 457.685 319.251 458.49 319.251 459.44C319.251 460.908 318.772 462.072 317.814 462.933C316.856 463.794 315.609 464.225 314.074 464.225C312.539 464.225 311.289 463.809 310.323 462.978C309.365 462.147 308.886 461.05 308.886 459.688H310.975C310.975 460.549 311.255 461.237 311.817 461.754C312.378 462.271 313.131 462.529 314.074 462.529C315.077 462.529 315.845 462.267 316.376 461.743C316.908 461.219 317.174 460.466 317.174 459.485C317.174 458.535 316.882 457.805 316.298 457.295C315.714 456.786 314.872 456.524 313.771 456.509H312.21V454.813ZM330.875 458.508H333.144V460.204H330.875V464H328.786V460.204H321.34V458.98L328.663 447.648H330.875V458.508ZM323.699 458.508H328.786V450.49L328.539 450.939L323.699 458.508ZM335.974 455.802L336.805 447.648H345.183V449.569H338.568L338.074 454.027C338.875 453.556 339.785 453.32 340.803 453.32C342.293 453.32 343.476 453.814 344.352 454.802C345.228 455.783 345.666 457.112 345.666 458.789C345.666 460.474 345.209 461.803 344.295 462.776C343.389 463.742 342.12 464.225 340.488 464.225C339.043 464.225 337.864 463.824 336.951 463.023C336.037 462.222 335.517 461.114 335.39 459.699H337.355C337.482 460.635 337.815 461.342 338.354 461.821C338.894 462.293 339.605 462.529 340.488 462.529C341.454 462.529 342.21 462.199 342.757 461.541C343.311 460.882 343.588 459.972 343.588 458.812C343.588 457.718 343.288 456.842 342.689 456.184C342.098 455.517 341.308 455.184 340.32 455.184C339.414 455.184 338.703 455.382 338.186 455.779L337.636 456.229L335.974 455.802ZM356.087 447.637V449.4H355.706C354.088 449.43 352.801 449.91 351.842 450.838C350.884 451.766 350.33 453.073 350.18 454.757C351.041 453.769 352.217 453.275 353.707 453.275C355.129 453.275 356.263 453.777 357.109 454.78C357.963 455.783 358.39 457.078 358.39 458.666C358.39 460.35 357.929 461.698 357.008 462.708C356.095 463.719 354.867 464.225 353.325 464.225C351.76 464.225 350.491 463.626 349.518 462.428C348.544 461.222 348.058 459.673 348.058 457.778V456.981C348.058 453.971 348.698 451.673 349.978 450.085C351.266 448.491 353.179 447.675 355.717 447.637H356.087ZM353.358 455.004C352.647 455.004 351.992 455.218 351.393 455.645C350.794 456.071 350.379 456.607 350.146 457.25V458.014C350.146 459.362 350.45 460.447 351.056 461.271C351.663 462.095 352.419 462.506 353.325 462.506C354.261 462.506 354.994 462.162 355.526 461.473C356.065 460.784 356.334 459.882 356.334 458.767C356.334 457.644 356.061 456.738 355.515 456.049C354.976 455.353 354.257 455.004 353.358 455.004ZM371.406 448.816L364.634 464H362.455L369.205 449.355H360.355V447.648H371.406V448.816ZM383.681 451.916C383.681 452.732 383.464 453.458 383.029 454.095C382.603 454.731 382.022 455.229 381.289 455.588C382.142 455.955 382.816 456.491 383.31 457.194C383.812 457.898 384.062 458.695 384.062 459.586C384.062 461.001 383.583 462.128 382.625 462.967C381.674 463.805 380.42 464.225 378.863 464.225C377.291 464.225 376.029 463.805 375.078 462.967C374.135 462.121 373.663 460.994 373.663 459.586C373.663 458.703 373.903 457.906 374.382 457.194C374.868 456.483 375.539 455.944 376.392 455.577C375.666 455.218 375.093 454.72 374.674 454.083C374.255 453.447 374.045 452.725 374.045 451.916C374.045 450.538 374.487 449.445 375.37 448.637C376.254 447.828 377.418 447.424 378.863 447.424C380.3 447.424 381.461 447.828 382.344 448.637C383.235 449.445 383.681 450.538 383.681 451.916ZM381.985 459.542C381.985 458.628 381.693 457.883 381.109 457.307C380.532 456.73 379.776 456.442 378.84 456.442C377.904 456.442 377.152 456.726 376.583 457.295C376.021 457.864 375.741 458.613 375.741 459.542C375.741 460.47 376.014 461.2 376.561 461.731C377.115 462.263 377.882 462.529 378.863 462.529C379.836 462.529 380.6 462.263 381.154 461.731C381.708 461.192 381.985 460.462 381.985 459.542ZM378.863 449.131C378.047 449.131 377.384 449.385 376.875 449.895C376.373 450.396 376.123 451.081 376.123 451.95C376.123 452.781 376.37 453.455 376.864 453.971C377.365 454.48 378.032 454.735 378.863 454.735C379.694 454.735 380.356 454.48 380.851 453.971C381.352 453.455 381.603 452.781 381.603 451.95C381.603 451.119 381.345 450.441 380.828 449.917C380.312 449.393 379.656 449.131 378.863 449.131ZM394.642 456.812C394.207 457.329 393.687 457.745 393.081 458.059C392.482 458.374 391.823 458.531 391.104 458.531C390.161 458.531 389.337 458.299 388.633 457.834C387.937 457.37 387.398 456.719 387.016 455.88C386.634 455.034 386.443 454.102 386.443 453.084C386.443 451.991 386.649 451.006 387.061 450.13C387.48 449.254 388.072 448.584 388.835 448.12C389.599 447.656 390.49 447.424 391.508 447.424C393.125 447.424 394.398 448.03 395.327 449.243C396.263 450.449 396.73 452.096 396.73 454.185V454.791C396.73 457.973 396.102 460.298 394.844 461.765C393.586 463.225 391.688 463.974 389.15 464.011H388.746V462.259H389.184C390.898 462.229 392.216 461.784 393.137 460.923C394.058 460.054 394.559 458.684 394.642 456.812ZM391.441 456.812C392.137 456.812 392.777 456.599 393.361 456.172C393.953 455.746 394.383 455.218 394.653 454.589V453.758C394.653 452.395 394.357 451.287 393.766 450.434C393.174 449.58 392.425 449.153 391.52 449.153C390.606 449.153 389.872 449.505 389.318 450.209C388.764 450.905 388.487 451.826 388.487 452.972C388.487 454.087 388.753 455.008 389.285 455.734C389.824 456.453 390.542 456.812 391.441 456.812ZM406.422 464H404.333V450.153L400.145 451.691V449.805L406.097 447.57H406.422V464ZM423.223 464H412.509V462.506L418.169 456.217C419.008 455.266 419.584 454.495 419.899 453.904C420.221 453.305 420.382 452.687 420.382 452.051C420.382 451.197 420.124 450.497 419.607 449.951C419.09 449.404 418.402 449.131 417.541 449.131C416.507 449.131 415.702 449.427 415.126 450.018C414.557 450.602 414.272 451.418 414.272 452.466H412.195C412.195 450.961 412.678 449.745 413.644 448.816C414.617 447.888 415.916 447.424 417.541 447.424C419.06 447.424 420.262 447.824 421.146 448.625C422.029 449.419 422.471 450.479 422.471 451.804C422.471 453.413 421.445 455.33 419.394 457.554L415.014 462.304H423.223V464ZM428.445 454.813H430.006C430.987 454.799 431.758 454.54 432.32 454.039C432.881 453.537 433.162 452.859 433.162 452.006C433.162 450.089 432.208 449.131 430.298 449.131C429.4 449.131 428.681 449.389 428.142 449.906C427.611 450.415 427.345 451.092 427.345 451.938H425.267C425.267 450.643 425.739 449.569 426.682 448.715C427.633 447.854 428.838 447.424 430.298 447.424C431.841 447.424 433.05 447.832 433.926 448.648C434.802 449.464 435.24 450.598 435.24 452.051C435.24 452.762 435.008 453.451 434.543 454.117C434.087 454.784 433.462 455.281 432.668 455.611C433.566 455.895 434.259 456.367 434.746 457.026C435.24 457.685 435.487 458.49 435.487 459.44C435.487 460.908 435.008 462.072 434.049 462.933C433.091 463.794 431.844 464.225 430.31 464.225C428.775 464.225 427.524 463.809 426.559 462.978C425.6 462.147 425.121 461.05 425.121 459.688H427.21C427.21 460.549 427.491 461.237 428.052 461.754C428.614 462.271 429.366 462.529 430.31 462.529C431.313 462.529 432.08 462.267 432.612 461.743C433.143 461.219 433.409 460.466 433.409 459.485C433.409 458.535 433.117 457.805 432.533 457.295C431.949 456.786 431.107 456.524 430.006 456.509H428.445V454.813ZM447.11 458.508H449.379V460.204H447.11V464H445.021V460.204H437.576V458.98L444.898 447.648H447.11V458.508ZM439.934 458.508H445.021V450.49L444.774 450.939L439.934 458.508Z" fill="#5B97EE"/>
<rect x="35" y="330" width="307.282" height="120" rx="25" fill="#6496DC"/>
<path d="M309 494H294.2L272 450H309V494Z" fill="#6496DC"/>
<rect x="45" y="330" width="307.282" height="120" rx="25" fill="#80A8E1"/>
<path d="M103.782 375.917C103.992 377.317 104.062 378.262 104.062 380.432V399.262C104.062 401.327 103.992 402.447 103.782 403.777H109.102C108.892 402.447 108.822 401.327 108.822 399.262V380.432C108.822 378.332 108.892 377.247 109.102 375.917H103.782ZM113.126 395.622C113.336 397.057 113.476 397.722 113.791 398.527C114.456 400.242 115.471 401.572 116.871 402.517C118.551 403.637 121.351 404.337 124.221 404.337C127.966 404.337 130.731 403.462 132.586 401.677C134.021 400.242 134.791 398.212 134.791 395.727C134.791 393.102 133.881 391.177 131.886 389.707C130.626 388.832 128.946 388.167 126.181 387.572C122.296 386.697 122.016 386.627 121.246 386.312C119.636 385.612 118.866 384.597 118.866 383.127C118.866 380.852 120.931 379.312 123.976 379.312C125.901 379.312 127.441 379.907 128.351 380.992C128.946 381.692 129.191 382.287 129.401 383.477L134.406 382.882C133.986 381.027 133.566 379.977 132.691 378.822C130.976 376.512 127.966 375.287 123.976 375.287C117.956 375.287 114.036 378.437 114.036 383.302C114.036 385.647 114.946 387.572 116.731 388.972C117.991 389.952 119.391 390.512 122.016 391.107C126.846 392.227 127.056 392.262 128.106 392.822C129.191 393.417 129.856 394.607 129.856 396.042C129.856 398.667 127.756 400.242 124.256 400.242C121.981 400.242 120.161 399.507 119.146 398.177C118.516 397.372 118.306 396.672 118.166 395.097L113.126 395.622ZM152.146 403.777C157.956 403.777 161.211 401.012 161.211 396.112C161.211 393.837 160.476 392.087 159.041 390.757C158.096 389.882 157.291 389.532 155.506 389.147C156.871 388.727 157.501 388.412 158.271 387.677C159.601 386.452 160.231 384.877 160.231 382.742C160.231 378.367 157.186 375.917 151.761 375.917H143.501C141.121 375.917 140.561 375.917 139.091 375.847C139.266 377.282 139.371 378.542 139.371 380.152V399.157C139.371 401.397 139.301 402.412 139.056 403.882C140.491 403.812 141.506 403.777 143.536 403.777H152.146ZM143.991 387.327V379.837H151.236C152.636 379.837 153.826 380.222 154.596 380.922C155.156 381.447 155.506 382.392 155.506 383.512C155.506 385.892 153.931 387.327 151.271 387.327H143.991ZM143.991 391.212H151.446C153.056 391.212 154.386 391.632 155.261 392.402C156.031 393.102 156.381 394.047 156.381 395.447C156.381 398.282 154.631 399.822 151.516 399.822H143.991V391.212ZM189.208 403.777C188.998 402.552 188.928 401.222 188.928 399.262V380.747C188.928 378.612 188.998 377.317 189.208 375.917H184.098C184.308 377.247 184.378 378.682 184.378 380.747V392.507C184.378 393.977 184.483 396.077 184.623 397.442C183.853 396.042 182.733 394.222 181.893 392.962L173.038 379.627C171.848 377.842 171.218 376.792 170.903 375.917H165.443C165.653 377.352 165.723 378.612 165.723 380.432V398.492C165.723 400.872 165.618 402.622 165.443 403.777H170.553C170.378 402.517 170.273 400.872 170.273 398.527V387.047C170.273 386.242 170.203 384.667 170.168 384.002C170.063 382.707 170.063 382.707 170.028 382.217C170.868 383.862 171.743 385.367 172.408 386.417L181.438 400.032C182.453 401.572 183.083 402.587 183.678 403.777H189.208ZM216.868 401.642V403.777H221.558C221.418 402.902 221.383 401.922 221.383 400.172V380.957C221.383 379.347 221.383 378.997 221.488 378.052C220.263 378.122 220.263 378.122 218.443 378.122H201.608C199.053 378.122 198.388 378.087 197.093 377.877V382.427C198.353 382.287 199.088 382.252 201.573 382.252H216.903V397.512H200.978C198.528 397.512 197.898 397.477 196.603 397.267V401.782C197.653 401.677 198.493 401.642 200.908 401.642H216.868ZM229.188 392.367C230.588 392.192 230.973 392.192 234.893 392.192H253.478C257.398 392.192 257.783 392.192 259.183 392.367V387.502C257.643 387.712 256.978 387.747 253.513 387.747H234.858C231.393 387.747 230.728 387.712 229.188 387.502V392.367ZM275.178 404.932C275.073 403.917 275.038 402.937 275.038 401.047V391.807C275.038 391.002 275.003 390.407 274.898 389.427C275.178 389.602 275.283 389.637 276.088 390.022C281.058 392.262 286.028 394.957 288.478 396.707L290.928 392.577C285.398 389.462 279.098 386.522 275.038 385.192V378.682C275.038 376.617 275.073 375.952 275.178 375.007H270.383C270.523 375.847 270.558 376.547 270.593 378.577V401.012C270.593 403.007 270.523 403.952 270.383 404.932H275.178ZM282.353 378.052C283.893 379.732 284.873 381.132 286.028 383.267L288.478 381.972C287.288 379.802 286.343 378.472 284.803 376.827L282.353 378.052ZM292.643 379.697C291.558 377.702 290.578 376.372 289.003 374.762L286.658 375.987C288.023 377.492 289.178 379.137 290.228 381.062L292.643 379.697Z" fill="white"/>
<path d="M319 494H304.2L282 450H319V494Z" fill="#80A8E1"/>
<line x1="282" y1="536.5" x2="548" y2="536.5" stroke="#80A8E1" stroke-width="5"/>
</svg>
