<svg width="193" height="45" viewBox="0 0 193 45" fill="none" xmlns="http://www.w3.org/2000/svg">
<path d="M58.204 10.992H63.316C66.028 10.992 68.08 11.544 69.472 12.648C70.888 13.728 71.596 15.288 71.596 17.328C71.596 18.456 71.308 19.5 70.732 20.46C70.18 21.396 69.364 22.152 68.284 22.728C70.06 23.304 71.404 24.168 72.316 25.32C73.252 26.472 73.72 27.84 73.72 29.424C73.72 31.56 72.94 33.336 71.38 34.752C69.82 36.144 67.804 36.84 65.332 36.84H58.204V10.992ZM60.76 13.512V21.792H62.236C64.492 21.792 66.172 21.432 67.276 20.712C68.38 19.992 68.932 18.864 68.932 17.328C68.932 14.784 67.204 13.512 63.748 13.512H60.76ZM60.76 24.384V34.32H63.964C65.812 34.32 67.168 34.14 68.032 33.78C68.92 33.396 69.64 32.82 70.192 32.052C70.744 31.26 71.02 30.456 71.02 29.64C71.02 28.824 70.864 28.104 70.552 27.48C70.24 26.856 69.772 26.304 69.148 25.824C68.548 25.344 67.816 24.984 66.952 24.744C66.112 24.504 64.528 24.384 62.2 24.384H60.76ZM76.0679 27.408C76.0679 24.6 77.0279 22.2 78.9479 20.208C80.8919 18.216 83.2439 17.22 86.0039 17.22C88.7879 17.22 91.1399 18.216 93.0599 20.208C95.0039 22.2 95.9759 24.588 95.9759 27.372C95.9759 30.156 95.0159 32.544 93.0959 34.536C91.1999 36.504 88.8479 37.488 86.0399 37.488C83.2319 37.488 80.8679 36.504 78.9479 34.536C77.0279 32.544 76.0679 30.168 76.0679 27.408ZM93.4919 27.444C93.4919 25.332 92.7479 23.508 91.2599 21.972C89.7959 20.412 88.0439 19.632 86.0039 19.632C83.9879 19.632 82.2479 20.412 80.7839 21.972C79.3199 23.508 78.5879 25.344 78.5879 27.48C78.5879 29.616 79.2959 31.428 80.7119 32.916C82.1279 34.404 83.8799 35.148 85.9679 35.148C88.0799 35.148 89.8559 34.404 91.2959 32.916C92.7599 31.404 93.4919 29.58 93.4919 27.444ZM98.2177 27.408C98.2177 24.6 99.1777 22.2 101.098 20.208C103.042 18.216 105.394 17.22 108.154 17.22C110.938 17.22 113.29 18.216 115.21 20.208C117.154 22.2 118.126 24.588 118.126 27.372C118.126 30.156 117.166 32.544 115.246 34.536C113.35 36.504 110.998 37.488 108.19 37.488C105.382 37.488 103.018 36.504 101.098 34.536C99.1777 32.544 98.2177 30.168 98.2177 27.408ZM115.642 27.444C115.642 25.332 114.898 23.508 113.41 21.972C111.946 20.412 110.194 19.632 108.154 19.632C106.138 19.632 104.398 20.412 102.934 21.972C101.47 23.508 100.738 25.344 100.738 27.48C100.738 29.616 101.446 31.428 102.862 32.916C104.278 34.404 106.03 35.148 108.118 35.148C110.23 35.148 112.006 34.404 113.446 32.916C114.91 31.404 115.642 29.58 115.642 27.444ZM120.908 10.344H123.392V25.428L132.212 17.724H135.848L125.336 26.832L136.46 36.84H132.968L123.392 28.236V36.84H120.908V10.344ZM144.702 36.84L148.374 10.992H148.77L159.282 32.196L169.722 10.992H170.118L173.826 36.84H171.27L168.75 18.336L159.606 36.84H158.958L149.706 18.192L147.186 36.84H144.702ZM174.832 32.016L177.028 30.72C178.564 33.552 180.352 34.968 182.392 34.968C183.712 34.968 184.84 34.548 185.776 33.708C186.712 32.868 187.18 31.824 187.18 30.576C187.18 29.592 186.784 28.596 185.992 27.588C185.2 26.58 183.88 25.392 182.032 24.024C180.208 22.632 178.972 21.6 178.324 20.928C177.7 20.232 177.232 19.5 176.92 18.732C176.632 17.94 176.488 17.148 176.488 16.356C176.488 14.676 177.076 13.26 178.252 12.108C179.452 10.932 180.952 10.344 182.752 10.344C184.168 10.344 185.404 10.704 186.46 11.424C187.516 12.12 188.536 13.164 189.52 14.556L187.432 16.176C186.76 15.264 186.064 14.508 185.344 13.908C184.624 13.308 183.736 13.008 182.68 13.008C181.648 13.008 180.796 13.32 180.124 13.944C179.476 14.568 179.152 15.36 179.152 16.32C179.152 17.28 179.44 18.12 180.016 18.84C180.616 19.536 181.948 20.652 184.012 22.188C186.1 23.724 187.612 25.14 188.548 26.436C189.508 27.732 189.988 29.1 189.988 30.54C189.988 32.412 189.256 34.044 187.792 35.436C186.352 36.804 184.672 37.488 182.752 37.488C179.368 37.488 176.728 35.664 174.832 32.016Z" fill="black"/>
<rect x="15.75" y="0.75" width="28.5" height="28.5" stroke="#409EFF" stroke-width="1.5"/>
<rect x="0.75" y="15.75" width="28.5" height="28.5" stroke="#409EFF" stroke-width="1.5"/>
</svg>
