<svg width="179" height="42" viewBox="0 0 179 42" fill="none" xmlns="http://www.w3.org/2000/svg">
<path d="M45.412 20.248V9.016H55.744C56.656 9.016 57.508 9.136 58.3 9.376C59.092 9.592 59.776 9.94 60.352 10.42C60.952 10.876 61.42 11.464 61.756 12.184C62.092 12.88 62.26 13.72 62.26 14.704C62.26 15.616 62.08 16.42 61.72 17.116C61.36 17.812 60.88 18.4 60.28 18.88C59.68 19.336 58.984 19.684 58.192 19.924C57.424 20.14 56.608 20.248 55.744 20.248H45.412ZM44.692 8.296V34H55.312C56.536 34 57.664 33.856 58.696 33.568C59.752 33.256 60.652 32.812 61.396 32.236C62.14 31.66 62.716 30.94 63.124 30.076C63.556 29.188 63.772 28.168 63.772 27.016C63.772 26.032 63.604 25.156 63.268 24.388C62.932 23.596 62.476 22.936 61.9 22.408C61.348 21.856 60.688 21.436 59.92 21.148C59.176 20.836 58.384 20.668 57.544 20.644V20.572C58.336 20.524 59.056 20.344 59.704 20.032C60.376 19.696 60.952 19.264 61.432 18.736C61.912 18.208 62.284 17.596 62.548 16.9C62.836 16.204 62.98 15.472 62.98 14.704C62.98 13.624 62.788 12.688 62.404 11.896C62.044 11.104 61.528 10.444 60.856 9.916C60.208 9.364 59.44 8.956 58.552 8.692C57.688 8.428 56.752 8.296 55.744 8.296H44.692ZM45.412 33.28V20.968H55.744C56.656 20.968 57.544 21.076 58.408 21.292C59.296 21.508 60.076 21.856 60.748 22.336C61.444 22.816 61.996 23.44 62.404 24.208C62.836 24.976 63.052 25.924 63.052 27.052C63.052 28.108 62.86 29.032 62.476 29.824C62.092 30.592 61.564 31.24 60.892 31.768C60.244 32.272 59.464 32.656 58.552 32.92C57.664 33.16 56.692 33.28 55.636 33.28H45.412ZM66.7358 24.748C66.7358 23.596 66.8918 22.48 67.2038 21.4C67.5398 20.32 68.0318 19.372 68.6798 18.556C69.3278 17.716 70.1198 17.044 71.0558 16.54C72.0158 16.036 73.1198 15.784 74.3678 15.784C75.5918 15.784 76.6718 16.036 77.6078 16.54C78.5678 17.044 79.3718 17.716 80.0198 18.556C80.6678 19.372 81.1478 20.32 81.4598 21.4C81.7958 22.48 81.9638 23.596 81.9638 24.748C81.9638 25.924 81.7958 27.052 81.4598 28.132C81.1478 29.212 80.6678 30.172 80.0198 31.012C79.3718 31.828 78.5678 32.488 77.6078 32.992C76.6718 33.472 75.5918 33.712 74.3678 33.712C73.1198 33.712 72.0158 33.472 71.0558 32.992C70.1198 32.488 69.3278 31.828 68.6798 31.012C68.0318 30.172 67.5398 29.212 67.2038 28.132C66.8918 27.052 66.7358 25.924 66.7358 24.748ZM66.0158 24.748C66.0158 26.02 66.1958 27.244 66.5558 28.42C66.9158 29.572 67.4438 30.592 68.1398 31.48C68.8598 32.368 69.7358 33.076 70.7678 33.604C71.7998 34.132 72.9878 34.396 74.3318 34.396C75.6998 34.396 76.8998 34.132 77.9318 33.604C78.9638 33.076 79.8278 32.368 80.5238 31.48C81.2438 30.592 81.7838 29.572 82.1438 28.42C82.5038 27.244 82.6838 26.02 82.6838 24.748C82.6838 23.476 82.5038 22.264 82.1438 21.112C81.7838 19.936 81.2438 18.904 80.5238 18.016C79.8278 17.128 78.9638 16.42 77.9318 15.892C76.8998 15.34 75.7118 15.064 74.3678 15.064C72.9998 15.064 71.7998 15.34 70.7678 15.892C69.7358 16.42 68.8598 17.128 68.1398 18.016C67.4438 18.904 66.9158 19.936 66.5558 21.112C66.1958 22.264 66.0158 23.476 66.0158 24.748ZM85.4038 24.748C85.4038 23.596 85.5598 22.48 85.8718 21.4C86.2078 20.32 86.6998 19.372 87.3478 18.556C87.9958 17.716 88.7878 17.044 89.7238 16.54C90.6838 16.036 91.7878 15.784 93.0358 15.784C94.2598 15.784 95.3398 16.036 96.2758 16.54C97.2358 17.044 98.0398 17.716 98.6878 18.556C99.3358 19.372 99.8158 20.32 100.128 21.4C100.464 22.48 100.632 23.596 100.632 24.748C100.632 25.924 100.464 27.052 100.128 28.132C99.8158 29.212 99.3358 30.172 98.6878 31.012C98.0398 31.828 97.2358 32.488 96.2758 32.992C95.3398 33.472 94.2598 33.712 93.0358 33.712C91.7878 33.712 90.6838 33.472 89.7238 32.992C88.7878 32.488 87.9958 31.828 87.3478 31.012C86.6998 30.172 86.2078 29.212 85.8718 28.132C85.5598 27.052 85.4038 25.924 85.4038 24.748ZM84.6838 24.748C84.6838 26.02 84.8638 27.244 85.2238 28.42C85.5838 29.572 86.1118 30.592 86.8078 31.48C87.5278 32.368 88.4038 33.076 89.4358 33.604C90.4678 34.132 91.6558 34.396 92.9998 34.396C94.3678 34.396 95.5678 34.132 96.5998 33.604C97.6318 33.076 98.4958 32.368 99.1918 31.48C99.9118 30.592 100.452 29.572 100.812 28.42C101.172 27.244 101.352 26.02 101.352 24.748C101.352 23.476 101.172 22.264 100.812 21.112C100.452 19.936 99.9118 18.904 99.1918 18.016C98.4958 17.128 97.6318 16.42 96.5998 15.892C95.5678 15.34 94.3798 15.064 93.0358 15.064C91.6678 15.064 90.4678 15.34 89.4358 15.892C88.4038 16.42 87.5278 17.128 86.8078 18.016C86.1118 18.904 85.5838 19.936 85.2238 21.112C84.8638 22.264 84.6838 23.476 84.6838 24.748ZM105.044 27.016L109.832 23.056L118.508 34H119.48L110.372 22.552L118.868 15.496H117.824L105.044 26.116V8.296H104.324V34H105.044V27.016ZM153.307 8.296L142.435 33.064H142.363L131.491 8.296H130.303V34H131.023V9.196H131.095L142.003 34H142.795L153.703 9.196H153.775V34H154.495V8.296H153.307ZM175.565 15.496H176.285C176.213 14.056 175.937 12.844 175.457 11.86C174.977 10.852 174.329 10.048 173.513 9.448C172.721 8.824 171.785 8.38 170.705 8.116C169.649 7.828 168.485 7.684 167.213 7.684C166.181 7.684 165.137 7.792 164.081 8.008C163.049 8.224 162.113 8.584 161.273 9.088C160.433 9.592 159.749 10.276 159.221 11.14C158.693 11.98 158.429 13.036 158.429 14.308C158.429 15.556 158.681 16.576 159.185 17.368C159.689 18.136 160.349 18.76 161.165 19.24C162.005 19.696 162.941 20.056 163.973 20.32C165.005 20.584 166.037 20.836 167.069 21.076C168.053 21.316 169.073 21.556 170.129 21.796C171.209 22.012 172.181 22.348 173.045 22.804C173.933 23.236 174.653 23.836 175.205 24.604C175.781 25.348 176.069 26.368 176.069 27.664C176.069 28.768 175.817 29.716 175.313 30.508C174.833 31.3 174.197 31.948 173.405 32.452C172.613 32.956 171.713 33.328 170.705 33.568C169.721 33.784 168.725 33.892 167.717 33.892C166.349 33.892 165.089 33.748 163.937 33.46C162.809 33.148 161.825 32.656 160.985 31.984C160.169 31.312 159.533 30.448 159.077 29.392C158.621 28.312 158.393 27.004 158.393 25.468H157.673C157.649 27.1 157.877 28.492 158.357 29.644C158.861 30.796 159.557 31.744 160.445 32.488C161.357 33.208 162.425 33.736 163.649 34.072C164.897 34.408 166.253 34.576 167.717 34.576C168.821 34.576 169.913 34.444 170.993 34.18C172.073 33.94 173.045 33.544 173.909 32.992C174.773 32.416 175.469 31.696 175.997 30.832C176.525 29.968 176.789 28.924 176.789 27.7C176.789 26.356 176.549 25.288 176.069 24.496C175.613 23.704 174.989 23.068 174.197 22.588C173.405 22.108 172.469 21.724 171.389 21.436C170.333 21.148 169.205 20.848 168.005 20.536C166.901 20.272 165.821 20.02 164.765 19.78C163.709 19.54 162.761 19.204 161.921 18.772C161.105 18.34 160.433 17.776 159.905 17.08C159.401 16.384 159.149 15.46 159.149 14.308C159.149 13.156 159.401 12.208 159.905 11.464C160.409 10.696 161.045 10.084 161.813 9.628C162.605 9.172 163.481 8.86 164.441 8.692C165.401 8.5 166.325 8.404 167.213 8.404C168.365 8.404 169.445 8.524 170.453 8.764C171.461 9.004 172.325 9.412 173.045 9.988C173.789 10.54 174.377 11.272 174.809 12.184C175.265 13.072 175.517 14.176 175.565 15.496Z" fill="black"/>
<rect x="10.35" y="6.35" width="19.3" height="19.3" stroke="#409EFF" stroke-width="0.7"/>
<rect x="0.35" y="16.35" width="19.3" height="19.3" stroke="#409EFF" stroke-width="0.7"/>
</svg>
