<svg width="433" height="92" viewBox="0 0 433 92" fill="none" xmlns="http://www.w3.org/2000/svg">
<path d="M129.493 42.875H144.793C147.043 42.875 148.918 42.25 150.418 41C151.918 39.7 152.668 37.85 152.668 35.45C152.668 32.75 151.993 30.85 150.643 29.75C149.293 28.65 147.343 28.1 144.793 28.1H129.493V42.875ZM120.118 20.45H146.143C150.943 20.45 154.793 21.55 157.693 23.75C160.593 25.95 162.043 29.275 162.043 33.725C162.043 36.425 161.368 38.75 160.018 40.7C158.718 42.6 156.843 44.075 154.393 45.125V45.275C157.693 45.975 160.193 47.55 161.893 50C163.593 52.4 164.443 55.425 164.443 59.075C164.443 61.175 164.068 63.15 163.318 65C162.568 66.8 161.393 68.375 159.793 69.725C158.193 71.025 156.143 72.075 153.643 72.875C151.143 73.625 148.168 74 144.718 74H120.118V20.45ZM129.493 66.35H146.068C148.918 66.35 151.118 65.625 152.668 64.175C154.268 62.675 155.068 60.575 155.068 57.875C155.068 55.225 154.268 53.2 152.668 51.8C151.118 50.35 148.918 49.625 146.068 49.625H129.493V66.35ZM189.501 75.05C186.401 75.05 183.626 74.55 181.176 73.55C178.776 72.5 176.726 71.075 175.026 69.275C173.376 67.475 172.101 65.325 171.201 62.825C170.351 60.325 169.926 57.575 169.926 54.575C169.926 51.625 170.351 48.9 171.201 46.4C172.101 43.9 173.376 41.75 175.026 39.95C176.726 38.15 178.776 36.75 181.176 35.75C183.626 34.7 186.401 34.175 189.501 34.175C192.601 34.175 195.351 34.7 197.751 35.75C200.201 36.75 202.251 38.15 203.901 39.95C205.601 41.75 206.876 43.9 207.726 46.4C208.626 48.9 209.076 51.625 209.076 54.575C209.076 57.575 208.626 60.325 207.726 62.825C206.876 65.325 205.601 67.475 203.901 69.275C202.251 71.075 200.201 72.5 197.751 73.55C195.351 74.55 192.601 75.05 189.501 75.05ZM189.501 68.3C191.401 68.3 193.051 67.9 194.451 67.1C195.851 66.3 197.001 65.25 197.901 63.95C198.801 62.65 199.451 61.2 199.851 59.6C200.301 57.95 200.526 56.275 200.526 54.575C200.526 52.925 200.301 51.275 199.851 49.625C199.451 47.975 198.801 46.525 197.901 45.275C197.001 43.975 195.851 42.925 194.451 42.125C193.051 41.325 191.401 40.925 189.501 40.925C187.601 40.925 185.951 41.325 184.551 42.125C183.151 42.925 182.001 43.975 181.101 45.275C180.201 46.525 179.526 47.975 179.076 49.625C178.676 51.275 178.476 52.925 178.476 54.575C178.476 56.275 178.676 57.95 179.076 59.6C179.526 61.2 180.201 62.65 181.101 63.95C182.001 65.25 183.151 66.3 184.551 67.1C185.951 67.9 187.601 68.3 189.501 68.3ZM233.959 75.05C230.859 75.05 228.084 74.55 225.634 73.55C223.234 72.5 221.184 71.075 219.484 69.275C217.834 67.475 216.559 65.325 215.659 62.825C214.809 60.325 214.384 57.575 214.384 54.575C214.384 51.625 214.809 48.9 215.659 46.4C216.559 43.9 217.834 41.75 219.484 39.95C221.184 38.15 223.234 36.75 225.634 35.75C228.084 34.7 230.859 34.175 233.959 34.175C237.059 34.175 239.809 34.7 242.209 35.75C244.659 36.75 246.709 38.15 248.359 39.95C250.059 41.75 251.334 43.9 252.184 46.4C253.084 48.9 253.534 51.625 253.534 54.575C253.534 57.575 253.084 60.325 252.184 62.825C251.334 65.325 250.059 67.475 248.359 69.275C246.709 71.075 244.659 72.5 242.209 73.55C239.809 74.55 237.059 75.05 233.959 75.05ZM233.959 68.3C235.859 68.3 237.509 67.9 238.909 67.1C240.309 66.3 241.459 65.25 242.359 63.95C243.259 62.65 243.909 61.2 244.309 59.6C244.759 57.95 244.984 56.275 244.984 54.575C244.984 52.925 244.759 51.275 244.309 49.625C243.909 47.975 243.259 46.525 242.359 45.275C241.459 43.975 240.309 42.925 238.909 42.125C237.509 41.325 235.859 40.925 233.959 40.925C232.059 40.925 230.409 41.325 229.009 42.125C227.609 42.925 226.459 43.975 225.559 45.275C224.659 46.525 223.984 47.975 223.534 49.625C223.134 51.275 222.934 52.925 222.934 54.575C222.934 56.275 223.134 57.95 223.534 59.6C223.984 61.2 224.659 62.65 225.559 63.95C226.459 65.25 227.609 66.3 229.009 67.1C230.409 67.9 232.059 68.3 233.959 68.3ZM260.867 20.45H269.417V50.9L284.867 35.225H295.367L280.517 49.475L296.792 74H286.367L274.517 55.175L269.417 60.125V74H260.867V20.45ZM322.849 20.45H336.049L350.824 62.375H350.974L365.374 20.45H378.424V74H369.499V32.675H369.349L354.499 74H346.774L331.924 32.675H331.774V74H322.849V20.45ZM395.799 56.15C395.799 58.2 396.149 59.95 396.849 61.4C397.549 62.85 398.524 64.05 399.774 65C401.024 65.9 402.449 66.575 404.049 67.025C405.699 67.425 407.474 67.625 409.374 67.625C411.424 67.625 413.174 67.4 414.624 66.95C416.074 66.45 417.249 65.825 418.149 65.075C419.049 64.325 419.699 63.475 420.099 62.525C420.499 61.525 420.699 60.525 420.699 59.525C420.699 57.475 420.224 55.975 419.274 55.025C418.374 54.025 417.374 53.325 416.274 52.925C414.374 52.225 412.149 51.575 409.599 50.975C407.099 50.325 403.999 49.5 400.299 48.5C397.999 47.9 396.074 47.125 394.524 46.175C393.024 45.175 391.824 44.075 390.924 42.875C390.024 41.675 389.374 40.4 388.974 39.05C388.624 37.7 388.449 36.325 388.449 34.925C388.449 32.225 388.999 29.9 390.099 27.95C391.249 25.95 392.749 24.3 394.599 23C396.449 21.7 398.549 20.75 400.899 20.15C403.249 19.5 405.624 19.175 408.024 19.175C410.824 19.175 413.449 19.55 415.899 20.3C418.399 21 420.574 22.075 422.424 23.525C424.324 24.975 425.824 26.775 426.924 28.925C428.024 31.025 428.574 33.475 428.574 36.275H419.199C418.949 32.825 417.774 30.4 415.674 29C413.574 27.55 410.899 26.825 407.649 26.825C406.549 26.825 405.424 26.95 404.274 27.2C403.124 27.4 402.074 27.775 401.124 28.325C400.174 28.825 399.374 29.525 398.724 30.425C398.124 31.325 397.824 32.45 397.824 33.8C397.824 35.7 398.399 37.2 399.549 38.3C400.749 39.35 402.299 40.15 404.199 40.7C404.399 40.75 405.174 40.975 406.524 41.375C407.924 41.725 409.474 42.125 411.174 42.575C412.874 43.025 414.524 43.475 416.124 43.925C417.774 44.325 418.949 44.625 419.649 44.825C421.399 45.375 422.924 46.125 424.224 47.075C425.524 48.025 426.599 49.125 427.449 50.375C428.349 51.575 428.999 52.875 429.399 54.275C429.849 55.675 430.074 57.075 430.074 58.475C430.074 61.475 429.449 64.05 428.199 66.2C426.999 68.3 425.399 70.025 423.399 71.375C421.399 72.725 419.124 73.7 416.574 74.3C414.024 74.95 411.424 75.275 408.774 75.275C405.724 75.275 402.849 74.9 400.149 74.15C397.449 73.4 395.099 72.25 393.099 70.7C391.099 69.15 389.499 67.175 388.299 64.775C387.099 62.325 386.474 59.45 386.424 56.15H395.799Z" fill="#2E2E2E"/>
<path d="M84.9026 43.0471C84.5871 41.5503 83.5343 40.313 82.1054 39.7577L80.3639 39.0825C78.7894 38.4714 77.0918 39.6309 77.0918 41.3168V41.9401C77.0918 42.553 77.4685 43.103 78.0412 43.325C78.4693 43.4917 78.7854 43.863 78.879 44.311C78.9731 44.7601 78.8356 45.2283 78.5103 45.5529L46.3422 77.6512C45.7055 78.2849 44.755 78.4849 43.9149 78.1603L6.93215 63.8069C4.87586 63.0297 4.87442 60.2385 5.13223 56.6244C5.58119 50.3818 12.8358 50.7422 18.6809 53.011L41.7666 61.9705C44.6267 63.0798 47.8728 62.3931 50.0373 60.2212L80.8776 29.2431C81.9569 28.1602 82.4163 26.606 82.0991 25.1124C81.7813 23.6176 80.7308 22.3833 79.3042 21.8308L47.5914 9.52364C44.7313 8.41401 41.4835 9.10066 39.3207 11.2729L3.5936 47.157C0.767843 49.4777 0 53.805 0 57.6479C0 61.1921 0.218064 65.3902 3.67507 67.4284C3.76509 67.4815 3.69535 67.6804 3.5936 67.6567L41.7839 82.4766C44.636 83.5825 47.8728 82.9039 50.0373 80.744L83.6707 47.1823C84.7547 46.1007 85.2186 44.5451 84.9026 43.0471Z" fill="#5B97EE"/>
</svg>
