<svg width="250" height="250" viewBox="0 0 250 250" fill="none" xmlns="http://www.w3.org/2000/svg">
<rect width="250" height="250" rx="125" fill="#ECF5FF"/>
<path d="M197.94 120.05C197.394 117.454 195.572 115.308 193.099 114.345L190.085 113.174C187.36 112.114 184.422 114.125 184.422 117.049V118.13C184.422 119.193 185.074 120.147 186.065 120.532C186.806 120.821 187.353 121.465 187.515 122.242C187.678 123.021 187.44 123.833 186.877 124.396L131.204 180.066C130.102 181.165 128.457 181.512 127.003 180.949L62.9974 156.055C59.4386 154.707 59.4361 149.866 59.8823 143.598C60.6593 132.771 73.2147 133.396 83.3309 137.331L123.285 152.87C128.235 154.794 133.853 153.603 137.599 149.836L190.974 96.1089C192.842 94.2307 193.637 91.5351 193.088 88.9448C192.538 86.3523 190.72 84.2115 188.251 83.2533L133.366 61.9082C128.416 59.9837 122.795 61.1746 119.052 64.942L57.2194 127.178C52.3289 131.203 51 138.708 51 145.373C51 151.52 51.3774 158.801 57.3604 162.336C57.5162 162.428 57.3955 162.773 57.2194 162.732L123.315 188.435C128.251 190.353 133.853 189.176 137.599 185.43L195.808 127.222C197.684 125.346 198.487 122.648 197.94 120.05Z" fill="#409EFF"/>
</svg>
