<svg width="250" height="250" viewBox="0 0 250 250" fill="none" xmlns="http://www.w3.org/2000/svg">
<rect width="250" height="250" rx="125" fill="#ECF5FF"/>
<path d="M125 45C87.9461 45 60 57.6134 60 74.3548V176.179C60 192.921 87.9461 205.567 125 205.567C162.054 205.567 190 192.954 190 176.179V74.3548C190 57.6134 162.054 45 125 45ZM181.973 142.238C181.973 152.329 158.581 163.599 125 163.599C91.4189 163.599 68.0267 152.361 68.0267 142.238V122.876C78.9037 131.852 99.8387 137.684 125 137.684C150.161 137.684 171.129 131.852 181.973 122.876V142.238ZM181.973 108.296C181.973 118.387 158.581 129.657 125 129.657C91.4189 129.657 68.0267 118.42 68.0267 108.296V88.934C78.9037 97.9108 99.8387 103.742 125 103.742C150.161 103.742 171.129 97.9108 181.973 88.934V108.296ZM125 53.0267C158.581 53.0267 181.973 64.2641 181.973 74.3876C181.973 84.5111 158.581 95.7485 125 95.7485C91.4189 95.7485 68.0267 84.5111 68.0267 74.3876C68.0267 64.2641 91.4189 53.0267 125 53.0267ZM125 197.508C91.4189 197.508 68.0267 186.27 68.0267 176.147V156.784C78.9037 165.761 99.8387 171.593 125 171.593C150.161 171.593 171.129 165.761 181.973 156.784V176.147C181.973 186.27 158.581 197.508 125 197.508Z" fill="#409EFF"/>
</svg>
