<svg width="250" height="250" viewBox="0 0 250 250" fill="none" xmlns="http://www.w3.org/2000/svg">
<rect width="250" height="250" rx="125" fill="#ECF5FF"/>
<path d="M181.46 82.9829H69.5402C67.5636 82.9829 65.9553 84.5908 65.9553 86.5675V152.729C65.9553 154.706 67.5636 156.314 69.5402 156.314H181.46C183.436 156.314 185.045 154.706 185.045 152.729V86.5678C185.045 84.5912 183.436 82.9829 181.46 82.9829V82.9829ZM181.941 152.729C181.941 152.994 181.725 153.21 181.46 153.21H69.5402C69.2749 153.21 69.0588 152.994 69.0588 152.729V86.5678C69.0588 86.3024 69.2745 86.0867 69.5402 86.0867H181.46C181.725 86.0867 181.941 86.3027 181.941 86.5678V152.729Z" fill="#409EFF"/>
<path d="M195.672 158.642H192.028V84.8661C192.028 79.9775 188.05 76 183.161 76H67.8389C62.9499 76 58.9727 79.9772 58.9727 84.8661V158.641H55.3276C54.0419 158.641 53 159.683 53 160.969V167.364C53 171.517 56.3794 174.897 60.5329 174.897H190.467C194.621 174.897 198 171.517 198 167.364V160.969C198 159.684 196.958 158.642 195.672 158.642V158.642ZM63.6277 84.8661C63.6277 82.5444 65.5168 80.6553 67.8386 80.6553H183.161C185.483 80.6553 187.372 82.5441 187.372 84.8661V158.641H63.6277V84.8661V84.8661ZM118.672 163.297H132.328V164.514C132.328 165.059 131.884 165.502 131.339 165.502H119.66C119.115 165.502 118.672 165.059 118.672 164.514V163.297H118.672ZM193.345 167.364C193.345 168.951 192.054 170.242 190.467 170.242H60.5332C58.9464 170.242 57.6556 168.951 57.6556 167.364V163.297H61.3004H115.569V164.514C115.569 166.77 117.404 168.606 119.661 168.606H131.34C133.596 168.606 135.432 166.77 135.432 164.514V163.297H189.7H193.345V167.364Z" fill="#409EFF"/>
</svg>
