<svg width="250" height="250" viewBox="0 0 250 250" fill="none" xmlns="http://www.w3.org/2000/svg">
<rect width="250" height="250" rx="125" fill="#ECF5FF"/>
<path d="M51 76.1291V172.973C51 179.095 55.9764 184.102 62.1291 184.102H186.901C193.024 184.102 198 179.126 198 172.973V76.1291C198 70.0066 193.024 65 186.901 65H62.1291C56.0066 65 51 69.9764 51 76.1291ZM186.871 176.683H62.1291C60.0782 176.683 58.3892 175.024 58.3892 172.943V100.317H190.581V172.973C190.611 174.994 188.922 176.683 186.871 176.683ZM190.611 76.1291V92.9282H58.3892V76.1291C58.3892 74.0782 60.048 72.3892 62.1291 72.3892H186.901C188.922 72.3892 190.611 74.0782 190.611 76.1291Z" fill="#409EFF"/>
<path d="M68.6738 86.3533C69.6389 86.3533 70.6041 85.9612 71.2977 85.2676C71.9914 84.5739 72.3835 83.6389 72.3835 82.6436C72.3835 81.6785 71.9914 80.7134 71.2977 80.0197C69.9104 78.6323 67.4373 78.6323 66.0801 80.0197C65.3864 80.7134 64.9943 81.6483 64.9943 82.6436C64.9943 83.6088 65.3864 84.5739 66.0801 85.2676C66.7436 85.9612 67.6785 86.3533 68.6738 86.3533Z" fill="#409EFF"/>
<path d="M82.6378 86.3533C83.603 86.3533 84.5681 85.9612 85.2316 85.2676C85.9253 84.5739 86.3174 83.6389 86.3174 82.6436C86.3174 81.6785 85.9253 80.7134 85.2316 80.0197C83.8442 78.6323 81.4013 78.6323 80.0139 80.0197C79.3202 80.7134 78.9282 81.6483 78.9282 82.6436C78.9282 83.6088 79.3202 84.5739 80.0139 85.2676C80.6774 85.9612 81.6426 86.3533 82.6378 86.3533Z" fill="#409EFF"/>
<path d="M96.5719 86.3533C97.537 86.3533 98.5021 85.9612 99.1958 85.2676C99.8895 84.5739 100.282 83.6389 100.282 82.6436C100.282 81.6785 99.8895 80.7134 99.1958 80.0197C97.8084 78.6323 95.3353 78.6323 93.9781 80.0197C93.2844 80.7134 92.8923 81.6483 92.8923 82.6436C92.8923 83.6088 93.2844 84.5739 93.9781 85.2676C94.6416 85.9612 95.6067 86.3533 96.5719 86.3533Z" fill="#409EFF"/>
<path d="M149.111 117.388C147.542 116.061 145.22 116.272 143.893 117.81C142.566 119.379 142.777 121.701 144.315 123.028L162.954 138.802L144.315 154.636C142.747 155.963 142.566 158.285 143.893 159.853C144.617 160.728 145.672 161.15 146.698 161.15C147.542 161.15 148.387 160.849 149.08 160.276L171.067 141.637C171.881 140.943 172.364 139.917 172.364 138.802C172.364 137.716 171.881 136.69 171.067 135.997L149.111 117.388Z" fill="#409EFF"/>
<path d="M86.0158 138.802L104.625 123.028C106.193 121.701 106.374 119.379 105.047 117.81C103.72 116.242 101.397 116.061 99.8291 117.388L77.8726 135.967C77.0582 136.66 76.5757 137.686 76.5757 138.771C76.5757 139.857 77.0582 140.883 77.8726 141.576L99.8291 160.215C100.523 160.818 101.367 161.09 102.212 161.09C103.267 161.09 104.293 160.637 105.017 159.793C106.344 158.225 106.163 155.902 104.594 154.575L86.0158 138.802Z" fill="#409EFF"/>
<path d="M135.086 112.14C133.186 111.386 131.045 112.291 130.291 114.191L111.682 160.728C110.928 162.628 111.833 164.769 113.733 165.523C114.185 165.704 114.638 165.795 115.09 165.795C116.568 165.795 117.955 164.92 118.528 163.472L137.137 116.936C137.921 115.035 136.986 112.894 135.086 112.14Z" fill="#409EFF"/>
</svg>
